G04 EAGLE Gerber RS-274X export*
G75*
%MOMM*%
%FSLAX34Y34*%
%LPD*%
%INTop Copper*%
%IPPOS*%
%AMOC8*
5,1,8,0,0,1.08239X$1,22.5*%
G01*
%ADD10P,1.429621X8X292.500000*%
%ADD11P,1.429621X8X22.500000*%
%ADD12P,1.429621X8X202.500000*%
%ADD13P,1.429621X8X112.500000*%
%ADD14C,1.320800*%
%ADD15C,1.879600*%
%ADD16C,1.408000*%
%ADD17C,0.609600*%
%ADD18C,0.406400*%
%ADD19C,0.756400*%


D10*
X317500Y419100D03*
X317500Y393700D03*
D11*
X306070Y214630D03*
X331470Y214630D03*
D12*
X179070Y114300D03*
X153670Y114300D03*
D10*
X393700Y482600D03*
X393700Y457200D03*
X109220Y482600D03*
X109220Y457200D03*
D13*
X347980Y365760D03*
X347980Y441960D03*
X144780Y363220D03*
X144780Y439420D03*
D10*
X375920Y441960D03*
X375920Y365760D03*
X118110Y439420D03*
X118110Y363220D03*
D14*
X196596Y419100D02*
X209804Y419100D01*
X209804Y393700D02*
X196596Y393700D01*
X196596Y368300D02*
X209804Y368300D01*
X209804Y342900D02*
X196596Y342900D01*
X196596Y317500D02*
X209804Y317500D01*
X209804Y292100D02*
X196596Y292100D01*
X196596Y266700D02*
X209804Y266700D01*
X209804Y241300D02*
X196596Y241300D01*
X196596Y215900D02*
X209804Y215900D01*
X209804Y190500D02*
X196596Y190500D01*
X196596Y165100D02*
X209804Y165100D01*
X209804Y139700D02*
X196596Y139700D01*
X196596Y114300D02*
X209804Y114300D01*
X209804Y88900D02*
X196596Y88900D01*
X272796Y88900D02*
X286004Y88900D01*
X286004Y114300D02*
X272796Y114300D01*
X272796Y139700D02*
X286004Y139700D01*
X286004Y165100D02*
X272796Y165100D01*
X272796Y190500D02*
X286004Y190500D01*
X286004Y215900D02*
X272796Y215900D01*
X272796Y241300D02*
X286004Y241300D01*
X286004Y266700D02*
X272796Y266700D01*
X272796Y292100D02*
X286004Y292100D01*
X286004Y317500D02*
X272796Y317500D01*
X272796Y342900D02*
X286004Y342900D01*
X286004Y368300D02*
X272796Y368300D01*
X272796Y393700D02*
X286004Y393700D01*
X286004Y419100D02*
X272796Y419100D01*
D15*
X406400Y114300D03*
X406400Y88900D03*
X469900Y368300D03*
X469900Y342900D03*
X469900Y317500D03*
X469900Y292100D03*
X469900Y266700D03*
X469900Y241300D03*
X469900Y215900D03*
X469900Y190500D03*
X469900Y165100D03*
X469900Y139700D03*
X25400Y241300D03*
X25400Y215900D03*
X25400Y190500D03*
X25400Y165100D03*
X25400Y139700D03*
X25400Y368300D03*
X25400Y342900D03*
X25400Y317500D03*
X25400Y292100D03*
X25400Y266700D03*
X21590Y73660D03*
X21590Y53340D03*
X21590Y31750D03*
X152400Y25400D03*
X152400Y50800D03*
D16*
X206140Y54600D03*
X231140Y54600D03*
X256140Y54600D03*
X256140Y21600D03*
X231140Y21600D03*
X206140Y21600D03*
D15*
X119380Y24130D03*
X119380Y49530D03*
X119380Y74930D03*
X119380Y100330D03*
X417830Y21590D03*
X392430Y21590D03*
X367030Y21590D03*
X341630Y21590D03*
X316230Y21590D03*
X290830Y21590D03*
X195580Y480060D03*
X220980Y480060D03*
X246380Y480060D03*
X271780Y480060D03*
X297180Y480060D03*
X444500Y21590D03*
X444500Y46990D03*
X444500Y72390D03*
X444500Y97790D03*
X429260Y471170D03*
X480060Y471170D03*
X71120Y471170D03*
X20320Y471170D03*
D17*
X206140Y54600D02*
X206140Y21600D01*
X176940Y50800D01*
X152400Y50800D01*
D18*
X179070Y114300D02*
X203200Y114300D01*
X375920Y382270D02*
X339090Y419100D01*
X375920Y382270D02*
X375920Y365760D01*
X339090Y419100D02*
X317500Y419100D01*
X469900Y72390D02*
X444500Y46990D01*
X443230Y158750D02*
X449580Y165100D01*
X469900Y165100D01*
X469900Y105410D02*
X469900Y72390D01*
X469900Y105410D02*
X443230Y132080D01*
X443230Y158750D01*
X106680Y24130D02*
X77470Y53340D01*
D19*
X77470Y53340D03*
X77470Y129540D03*
D18*
X106680Y24130D02*
X119380Y24130D01*
X77470Y129540D02*
X77470Y181610D01*
X77470Y53340D02*
X21590Y53340D01*
X77470Y129540D02*
X158750Y129540D01*
X173990Y114300D02*
X179070Y114300D01*
X173990Y114300D02*
X158750Y129540D01*
X77470Y181610D02*
X68580Y190500D01*
D19*
X68580Y190500D03*
D18*
X25400Y190500D01*
X220980Y455930D02*
X220980Y480060D01*
X179070Y441960D02*
X156210Y419100D01*
X137160Y419100D01*
X135890Y420370D01*
X215900Y450850D02*
X220980Y455930D01*
X215900Y450850D02*
X207010Y441960D01*
X179070Y441960D01*
D19*
X135890Y420370D03*
D18*
X247650Y419100D02*
X279400Y419100D01*
X247650Y419100D02*
X215900Y450850D01*
D17*
X256140Y54600D02*
X256140Y21600D01*
X367030Y21590D02*
X367030Y46990D01*
X359410Y54610D01*
X256150Y54610D02*
X256140Y54600D01*
X256150Y54610D02*
X359410Y54610D01*
D18*
X127000Y457200D02*
X109220Y457200D01*
X127000Y457200D02*
X144780Y439420D01*
X279400Y215900D02*
X304800Y215900D01*
X306070Y214630D01*
X429260Y454660D02*
X429260Y471170D01*
X429260Y454660D02*
X416560Y441960D01*
X375920Y441960D01*
X228600Y419100D02*
X203200Y419100D01*
X304800Y444500D02*
X317500Y457200D01*
X360680Y457200D02*
X375920Y441960D01*
X360680Y457200D02*
X317500Y457200D01*
X241300Y406400D02*
X228600Y419100D01*
X375920Y436880D02*
X375920Y441960D01*
X289560Y406400D02*
X241300Y406400D01*
X289560Y406400D02*
X304800Y421640D01*
X304800Y444500D01*
X203200Y139700D02*
X181610Y139700D01*
X170180Y151130D01*
X162560Y151130D01*
D19*
X162560Y151130D03*
X160020Y447040D03*
D18*
X124460Y482600D01*
X109220Y482600D01*
X71120Y471170D02*
X102870Y439420D01*
X118110Y439420D01*
X203200Y165100D02*
X201930Y163830D01*
X187960Y163830D01*
X179070Y172720D01*
X178435Y172085D01*
D19*
X178435Y172085D03*
X177800Y411480D03*
D18*
X133350Y411480D01*
X118110Y426720D01*
X118110Y439420D01*
X279400Y139700D02*
X373380Y139700D01*
D19*
X373380Y139700D03*
X373380Y88900D03*
D18*
X406400Y88900D01*
X427990Y88900D01*
X444500Y72390D01*
X355600Y165100D02*
X279400Y165100D01*
D19*
X355600Y165100D03*
X355600Y114300D03*
D18*
X406400Y114300D01*
X427990Y114300D01*
X444500Y97790D01*
X236220Y266700D02*
X203200Y266700D01*
D19*
X236220Y266700D03*
D18*
X254000Y215900D02*
X203200Y215900D01*
D19*
X254000Y215900D03*
D18*
X203200Y393700D02*
X50800Y393700D01*
X25400Y368300D01*
X177800Y368300D02*
X203200Y368300D01*
X152400Y342900D02*
X25400Y342900D01*
X152400Y342900D02*
X177800Y368300D01*
X331470Y127000D02*
X318770Y114300D01*
X331470Y127000D02*
X393700Y127000D01*
X400050Y133350D01*
X400050Y204470D02*
X411480Y215900D01*
X469900Y215900D01*
X318770Y114300D02*
X279400Y114300D01*
D19*
X400050Y133350D03*
X400050Y204470D03*
D18*
X69850Y212090D02*
X69850Y223520D01*
X52070Y241300D01*
X260350Y88900D02*
X279400Y88900D01*
X260350Y88900D02*
X222250Y127000D01*
X52070Y241300D02*
X25400Y241300D01*
X69850Y212090D02*
X145542Y136398D01*
X164875Y136398D01*
X174273Y127000D01*
X222250Y127000D01*
X203200Y88900D02*
X152400Y88900D01*
X139700Y101600D01*
D19*
X139700Y101600D03*
X139700Y266700D03*
D18*
X25400Y266700D01*
X279400Y368300D02*
X317500Y368300D01*
X336550Y349250D01*
X397510Y349250D02*
X416560Y368300D01*
X469900Y368300D01*
X397510Y349250D02*
X336550Y349250D01*
X326390Y335280D02*
X318770Y342900D01*
X410210Y335280D02*
X417830Y342900D01*
X469900Y342900D01*
X318770Y342900D02*
X279400Y342900D01*
X326390Y335280D02*
X410210Y335280D01*
X469900Y317500D02*
X279400Y317500D01*
X279400Y292100D02*
X469900Y292100D01*
X469900Y266700D02*
X279400Y266700D01*
X279400Y241300D02*
X469900Y241300D01*
X88900Y292100D02*
X25400Y292100D01*
X101600Y203200D02*
X114300Y190500D01*
X203200Y190500D01*
X101600Y279400D02*
X88900Y292100D01*
D19*
X101600Y279400D03*
X101600Y203200D03*
D17*
X231140Y54600D02*
X231140Y21600D01*
X127000Y74930D02*
X119380Y74930D01*
X127000Y74930D02*
X160020Y74930D01*
X224790Y69850D02*
X231140Y63500D01*
X231140Y54600D01*
X165100Y69850D02*
X160020Y74930D01*
X165100Y69850D02*
X224790Y69850D01*
X231140Y54600D02*
X246390Y69850D01*
X298450Y69850D01*
X317500Y88900D01*
D19*
X317500Y88900D03*
X317500Y190500D03*
D17*
X469900Y190500D01*
X50800Y215900D02*
X25400Y215900D01*
D19*
X50800Y215900D03*
X50800Y152400D03*
D17*
X50800Y101600D01*
X22860Y73660D01*
X21590Y73660D01*
X22860Y74930D02*
X119380Y74930D01*
X22860Y74930D02*
X21590Y73660D01*
D18*
X101600Y292100D02*
X203200Y292100D01*
X101600Y292100D02*
X76200Y317500D01*
X25400Y317500D01*
M02*
