G04 EAGLE Gerber RS-274X export*
G75*
%MOMM*%
%FSLAX34Y34*%
%LPD*%
%INSoldermask Top*%
%IPPOS*%
%AMOC8*
5,1,8,0,0,1.08239X$1,22.5*%
G01*
%ADD10P,1.649562X8X292.500000*%
%ADD11P,1.649562X8X22.500000*%
%ADD12P,1.649562X8X202.500000*%
%ADD13P,1.649562X8X112.500000*%
%ADD14C,1.524000*%
%ADD15C,2.082800*%
%ADD16C,1.611200*%
%ADD17C,0.959600*%


D10*
X317500Y419100D03*
X317500Y393700D03*
D11*
X306070Y214630D03*
X331470Y214630D03*
D12*
X179070Y114300D03*
X153670Y114300D03*
D10*
X393700Y482600D03*
X393700Y457200D03*
X109220Y482600D03*
X109220Y457200D03*
D13*
X347980Y365760D03*
X347980Y441960D03*
X144780Y363220D03*
X144780Y439420D03*
D10*
X375920Y441960D03*
X375920Y365760D03*
X118110Y439420D03*
X118110Y363220D03*
D14*
X196596Y419100D02*
X209804Y419100D01*
X209804Y393700D02*
X196596Y393700D01*
X196596Y368300D02*
X209804Y368300D01*
X209804Y342900D02*
X196596Y342900D01*
X196596Y317500D02*
X209804Y317500D01*
X209804Y292100D02*
X196596Y292100D01*
X196596Y266700D02*
X209804Y266700D01*
X209804Y241300D02*
X196596Y241300D01*
X196596Y215900D02*
X209804Y215900D01*
X209804Y190500D02*
X196596Y190500D01*
X196596Y165100D02*
X209804Y165100D01*
X209804Y139700D02*
X196596Y139700D01*
X196596Y114300D02*
X209804Y114300D01*
X209804Y88900D02*
X196596Y88900D01*
X272796Y88900D02*
X286004Y88900D01*
X286004Y114300D02*
X272796Y114300D01*
X272796Y139700D02*
X286004Y139700D01*
X286004Y165100D02*
X272796Y165100D01*
X272796Y190500D02*
X286004Y190500D01*
X286004Y215900D02*
X272796Y215900D01*
X272796Y241300D02*
X286004Y241300D01*
X286004Y266700D02*
X272796Y266700D01*
X272796Y292100D02*
X286004Y292100D01*
X286004Y317500D02*
X272796Y317500D01*
X272796Y342900D02*
X286004Y342900D01*
X286004Y368300D02*
X272796Y368300D01*
X272796Y393700D02*
X286004Y393700D01*
X286004Y419100D02*
X272796Y419100D01*
D15*
X406400Y114300D03*
X406400Y88900D03*
X469900Y368300D03*
X469900Y342900D03*
X469900Y317500D03*
X469900Y292100D03*
X469900Y266700D03*
X469900Y241300D03*
X469900Y215900D03*
X469900Y190500D03*
X469900Y165100D03*
X469900Y139700D03*
X25400Y241300D03*
X25400Y215900D03*
X25400Y190500D03*
X25400Y165100D03*
X25400Y139700D03*
X25400Y368300D03*
X25400Y342900D03*
X25400Y317500D03*
X25400Y292100D03*
X25400Y266700D03*
X21590Y73660D03*
X21590Y53340D03*
X21590Y31750D03*
X152400Y25400D03*
X152400Y50800D03*
D16*
X206140Y54600D03*
X231140Y54600D03*
X256140Y54600D03*
X256140Y21600D03*
X231140Y21600D03*
X206140Y21600D03*
D15*
X119380Y24130D03*
X119380Y49530D03*
X119380Y74930D03*
X119380Y100330D03*
X417830Y21590D03*
X392430Y21590D03*
X367030Y21590D03*
X341630Y21590D03*
X316230Y21590D03*
X290830Y21590D03*
X195580Y480060D03*
X220980Y480060D03*
X246380Y480060D03*
X271780Y480060D03*
X297180Y480060D03*
X444500Y21590D03*
X444500Y46990D03*
X444500Y72390D03*
X444500Y97790D03*
X429260Y471170D03*
X480060Y471170D03*
X71120Y471170D03*
X20320Y471170D03*
D17*
X77470Y53340D03*
X77470Y129540D03*
X68580Y190500D03*
X135890Y420370D03*
X162560Y151130D03*
X160020Y447040D03*
X178435Y172085D03*
X177800Y411480D03*
X373380Y139700D03*
X373380Y88900D03*
X355600Y165100D03*
X355600Y114300D03*
X236220Y266700D03*
X254000Y215900D03*
X400050Y133350D03*
X400050Y204470D03*
X139700Y101600D03*
X139700Y266700D03*
X101600Y279400D03*
X101600Y203200D03*
X317500Y88900D03*
X317500Y190500D03*
X50800Y215900D03*
X50800Y152400D03*
M02*
