M48
;GenerationSoftware,Autodesk,EAGLE,9.6.2*%
;CreationDate,2022-04-19T06:50:50Z*%
FMAT,2
ICI,OFF
METRIC,TZ,000.000
T4C0.350
T3C0.813
T2C0.900
T1C1.016
%
G90
M71
T1
X46990Y21590
X2159Y5334
X2159Y7366
X2540Y26670
X2540Y29210
X2540Y31750
X2540Y34290
X2540Y36830
X2540Y13970
X2540Y16510
X2540Y19050
X2540Y21590
X2540Y24130
X46990Y13970
X46990Y16510
X34163Y2159
X46990Y19050
X46990Y24130
X46990Y26670
X46990Y29210
X46990Y31750
X46990Y34290
X46990Y36830
X40640Y8890
X40640Y11430
X2159Y3175
X15240Y2540
X15240Y5080
X11938Y4953
X11938Y2413
X11938Y7493
X11938Y10033
X41783Y2159
X39243Y2159
X36703Y2159
X31623Y2159
X29083Y2159
X19558Y48006
X22098Y48006
X24638Y48006
X27178Y48006
X29718Y48006
X44450Y2159
X44450Y4699
X44450Y7239
X44450Y9779
X42926Y47117
X48006Y47117
X7112Y47117
X2032Y47117
T2
X23114Y2160
X20614Y2160
X23114Y5460
X20614Y5460
X25614Y5460
X25614Y2160
T3
X27940Y8890
X27940Y11430
X27940Y13970
X27940Y16510
X27940Y19050
X27940Y21590
X27940Y24130
X20320Y26670
X27940Y29210
X27940Y31750
X27940Y34290
X27940Y36830
X27940Y39370
X27940Y41910
X27940Y26670
X39370Y48260
X31750Y41910
X31750Y39370
X30607Y21463
X33147Y21463
X17907Y11430
X15367Y11430
X39370Y45720
X10922Y48260
X10922Y45720
X34798Y36576
X34798Y44196
X14478Y36322
X14478Y43942
X37592Y44196
X37592Y36576
X11811Y43942
X11811Y36322
X20320Y41910
X20320Y39370
X20320Y36830
X20320Y34290
X20320Y31750
X20320Y29210
X20320Y24130
X20320Y21590
X20320Y19050
X20320Y16510
X20320Y13970
X20320Y11430
X20320Y8890
T4
X13970Y10160
X40005Y13335
X25400Y21590
X23622Y26670
X35560Y11430
X35560Y16510
X37338Y8890
X37338Y13970
X7747Y5334
X17780Y41148
X17844Y17209
X16002Y44704
X16256Y15113
X13589Y42037
X6858Y19050
X7747Y12954
X5080Y15240
X5080Y21590
X31750Y19050
X31750Y8890
X10160Y20320
X10160Y27940
X13970Y26670
X40005Y20447
M30